<?xml version="1.0" encoding="utf-8"?>
<!-- Generator: Adobe Illustrator 19.0.0, SVG Export Plug-In . SVG Version: 6.00 Build 0)  -->
<svg version="1.1" id="Слой_1" xmlns="http://www.w3.org/2000/svg" xmlns:xlink="http://www.w3.org/1999/xlink" x="0px" y="0px"
	 viewBox="194 -63.8 487.6 226.8" style="enable-background:new 194 -63.8 487.6 226.8;" xml:space="preserve">
<style type="text/css">
	.st0{fill:#333333;}
</style>
<g>
	
		<image style="overflow:visible;opacity:2.000000e-02;enable-background:new    ;" width="508" height="375" xlink:href="4117D4FAA011D96A.png"  transform="matrix(0.2395 0 0 0.2368 558.2852 80.451)">
	</image>
	<g>
		<g>
			<path class="st0" d="M673.8,130.9c-0.1-1.7-1.4-2.9-1.4-2.9s-0.3,0-0.7,0.1c-0.1-0.1-0.2-0.2-0.2-0.2c-0.6-0.6-1.1-1-1.7-1.4
				c0.6-1,0.5-2.6-0.4-3.2c-0.3-0.2-0.7-0.2-1,0c0-0.1,0-0.1,0-0.2c0-1-0.6-1.2-1.4-0.6c-0.4,0.3-0.4,0.9-0.3,1.5
				c-1.2-1.1-3,0.6-1.8,1.9c-1.3-1-3.2,0.7-1.6,2.1c-0.5-0.2-1.4,0.1-1.7,0.6c-0.4,0.6,0.1,1.3,0.6,1.7c-0.4,0-1,0-1.3,0.3v-16.4
				c0.4,0.1,0.8,0.2,1.2,0.2c2.5,0,4.6-2.1,4.6-4.6l-49-12.6v-1.9c3.6,2,5.1,0.4,8-2.2c2-1.9,5-5.4,8-3c-3.1-3.2-4-2.5-8-1.4
				c-4.1,1.1-4.9,1.2-8-2.2l0,0H617v10.7l-48.8,12.4l0,0c0,2.5,2.1,4.6,4.6,4.6c0.7,0,1.4-0.2,1.9-0.4v11.7l0,0c-0.1,0-0.3,0-0.4,0
				c-0.2,0-0.4,0-0.6,0h-0.1c-0.1,0-0.3,0-0.4,0c0,0,0,0-0.1,0c-0.2,0-0.3,0-0.4,0h-0.1c-0.1,0-0.2,0-0.3,0l0,0l0,0
				c-0.7,0.1-1,0.2-1.1,0.2c-0.5,0.1-1,0.4-1.4,0.7c-1.2-1.5-3.7-4.7-3.7-4.7s-0.5,0.2-1.3,1c-0.7,0.8-0.6,1.4-0.6,1.4l4.8,3.2
				c-0.3,0.5-0.5,1.1-0.5,1.9c-0.2,2.9,1.7,3.8,1.7,3.8l-1.7,2.8l-0.2-0.1l-1.1,1.6l3.7,2.1l0.8-1.9l-0.3-0.2l1.2-2.8
				c0,0,0.8,0.3,1.9,0.3v16.8h-6.6v5.9h98.3v-5.9h-5.8v-11.2c1-0.3,1.7-0.8,1.7-0.8l1.5,3.8l-0.5,0.4l1,1.9l4.2-2.5l-1.2-2.3
				l-0.8,0.6l-1.7-2.9c0,0-0.1-0.2,0.3-0.7c0.4-0.6,0.3-2.2,0.4-3.8c0.1-1.6,1.3-2.1,1.3-2.1s0.6,0.5,1.6,0.8c0,0.3,0,0.5,0,0.5
				s2.1,1.2,3.5,0.5C673.3,133.3,673.9,132.6,673.8,130.9z M576.7,151.8v-16.9c1.6-0.3,2.7-1.1,2.7-1.1l1.5,3.8l-0.5,0.4l1,1.9
				l4.2-2.5l-1.2-2.3l-0.8,0.6l-1.7-2.9c0,0-0.1-0.2,0.3-0.7c0.4-0.6,0.3-2.2,0.4-3.8c0.1-1.6,1.3-2.1,1.3-2.1s0.6,0.5,1.6,0.8
				c0,0.3,0,0.5,0,0.5s2.1,1.2,3.5,0.5s2-1.4,1.8-3.1c-0.1-1.7-1.4-2.9-1.4-2.9s-0.3,0-0.7,0.1c-0.1-0.1-0.2-0.2-0.2-0.2
				c-0.6-0.6-1.1-1-1.7-1.4c0.6-1,0.5-2.6-0.4-3.2c-0.3-0.2-0.7-0.2-1,0c0-0.1,0-0.1,0-0.2c0-1-0.6-1.2-1.4-0.6
				c-0.4,0.3-0.4,0.9-0.3,1.5c-1.2-1.1-3,0.6-1.8,1.9c-1.3-1-3.2,0.7-1.6,2.1c-0.5-0.2-1.4,0.1-1.7,0.6c-0.4,0.6,0.1,1.3,0.6,1.7
				c-0.7,0.1-1.6,0-1.8,1c0,0.2,0,0.4,0.1,0.5c-0.1,0-0.2,0-0.4-0.1l0,0l0,0H577h-0.1l0,0v-13.6c0-0.1,0.1-0.1,0.1-0.2
				c0.8,1.4,2.3,2.4,4.1,2.4c1.7,0,3.3-1,4.1-2.4c0.8,1.4,2.3,2.4,4.1,2.4c1.7,0,3.3-1,4.1-2.4c0.8,1.4,2.3,2.4,4.1,2.4
				c1.7,0,3.3-1,4.1-2.4c0.8,1.4,2.3,2.4,4.1,2.4c0.8,0,1.5-0.2,2.1-0.5l4.6,38.1h-35.7V151.8z M658.8,131.5h-0.1
				c-0.1,0-0.1,0-0.2,0c-0.1,0-0.2,0-0.2,0c-0.1,0-0.1,0-0.2,0c-0.1,0-0.2,0-0.3,0h-0.1c-0.1,0-0.3,0-0.4,0c-0.2,0-0.4,0-0.6,0h-0.1
				c-0.1,0-0.3,0-0.4,0c0,0,0,0-0.1,0c-0.2,0-0.3,0-0.4,0h-0.1c-0.1,0-0.2,0-0.3,0l0,0l0,0c-0.7,0.1-1,0.2-1.1,0.2
				c-0.5,0.1-1,0.4-1.4,0.7c-1.2-1.5-3.7-4.7-3.7-4.7s-0.5,0.2-1.3,1c-0.7,0.8-0.6,1.4-0.6,1.4l4.8,3.2c-0.3,0.5-0.5,1.1-0.5,1.9
				c-0.2,2.9,1.7,3.8,1.7,3.8l-1.7,2.8l-0.2-0.1l-1.1,1.6l3.7,2.1l0.8-1.9l-0.3-0.2l1.2-2.8c0,0,1.2,0.4,2.8,0.4h0.1l0,0
				c0.1,0,0.1,0,0.2,0v10.8h-34.3l4.3-37.6c0.2,0,0.5,0.1,0.8,0.1c1.7,0,3.3-1,4.1-2.4c0.8,1.4,2.3,2.4,4.1,2.4c1.7,0,3.3-1,4.1-2.4
				c0.8,1.4,2.3,2.4,4.1,2.4c1.7,0,3.3-1,4.1-2.4c0.8,1.4,2.3,2.4,4.1,2.4c1.7,0,3.3-1,4.1-2.4c0.2,0.4,0.5,0.8,0.9,1.1v18.6H658.8z
				"/>
			<path class="st0" d="M568.2,157.6v5.6h98.3v-5.6c0,2.5-2.1,4.6-4.6,4.6c-1.7,0-3.3-1-4.1-2.4c-0.8,1.4-2.3,2.4-4.1,2.4
				c-1.7,0-3.3-1-4.1-2.4c-0.8,1.4-2.3,2.4-4.1,2.4c-1.7,0-3.3-1-4.1-2.4c-0.8,1.4-2.3,2.4-4.1,2.4c-1.7,0-3.3-1-4.1-2.4
				c-0.8,1.4-2.3,2.4-4.1,2.4c-1.7,0-3.3-1-4.1-2.4c-0.8,1.4-2.3,2.4-4.1,2.4c-1.7,0-3.3-1-4.1-2.4c-0.8,1.4-2.3,2.4-4.1,2.4
				c-1.7,0-3.3-1-4.1-2.4c-0.8,1.4-2.3,2.4-4.1,2.4c-1.7,0-3.3-1-4.1-2.4c-0.8,1.4-2.3,2.4-4.1,2.4c-1.7,0-3.3-1-4.1-2.4
				c-0.8,1.4-2.3,2.4-4.1,2.4c-1.7,0-3.3-1-4.1-2.4c-0.8,1.4-2.3,2.4-4.1,2.4c-1.7,0-3.3-1-4.1-2.4c-0.8,1.4-2.3,2.4-4.1,2.4
				C570.3,162.2,568.2,160.2,568.2,157.6z"/>
		</g>
	</g>
</g>
<g>
	<path class="st0" d="M343.1-50.2h2.2c-0.3-2.9-5.2-5.2-11.2-5.3c0-0.1,0.1-0.2,0.1-0.3c0-0.5-0.4-1-1-1c-0.5,0-1,0.4-1,1
		c0,0.1,0,0.2,0.1,0.4c-5.9,0.2-10.5,2.5-10.9,5.3h1.9v12.9h-0.9v3.2h0.7v0.9c0,3.1,2.5,5.5,5.5,5.5h9.2c3.1,0,5.5-2.5,5.5-5.5V-34
		h0.6v-3.2h-0.8L343.1-50.2L343.1-50.2z M323.8-37.3v-12.9h8.4l0.3,13.3h-3.4v-0.5L323.8-37.3L323.8-37.3z M336.1-36.3v3.3h-0.6
		v-3.3H336.1z M335-33h-0.6v-3.3h0.6V-33z M330.8-36.3v3.3h-0.6v-3.3H330.8z M331.2-36.3h0.6v3.3h-0.6V-36.3z M332.3-36.3h0.6v3.3
		h-0.6V-36.3z M333.4-36.3h0.6v3.3h-0.6V-36.3z M329.2-36.3h0.6v3.3h-0.6V-36.3z M336.5-33v-3.3h0.6v3.3H336.5z M337.1-37.3v0.5H334
		l0.5-13.3h8.1v12.9L337.1-37.3L337.1-37.3z"/>
	<path class="st0" d="M343.1,109.9h2.2c-0.3-2.9-5.2-5.2-11.2-5.3c0-0.1,0.1-0.2,0.1-0.3c0-0.5-0.4-1-1-1c-0.5,0-1,0.4-1,1
		c0,0.1,0,0.2,0.1,0.4c-5.9,0.2-10.5,2.5-10.9,5.3h1.9v12.9h-0.9v3.2h0.7v0.9c0,3.1,2.5,5.5,5.5,5.5h9.2c3.1,0,5.5-2.5,5.5-5.5v-0.9
		h0.6v-3.2h-0.8L343.1,109.9L343.1,109.9z M323.8,122.7v-12.9h8.4l0.3,13.3h-3.4v-0.5L323.8,122.7L323.8,122.7z M336.1,123.8v3.3
		h-0.6v-3.3H336.1z M335,127.1h-0.6v-3.3h0.6V127.1z M330.8,123.8v3.3h-0.6v-3.3H330.8z M331.2,123.8h0.6v3.3h-0.6V123.8z
		 M332.3,123.8h0.6v3.3h-0.6V123.8z M333.4,123.8h0.6v3.3h-0.6V123.8z M329.2,123.8h0.6v3.3h-0.6V123.8z M336.5,127.1v-3.3h0.6v3.3
		H336.5z M337.1,122.7v0.5H334l0.5-13.3h8.1v12.9L337.1,122.7L337.1,122.7z"/>
	<path class="st0" d="M418.8,11.2h2.2c-0.3-2.9-5.2-5.2-11.2-5.3c0-0.1,0.1-0.2,0.1-0.3c0-0.5-0.4-1-1-1c-0.5,0-1,0.4-1,1
		c0,0.1,0,0.2,0.1,0.4c-5.9,0.2-10.5,2.5-10.9,5.3h1.9v12.9h-0.9v3.2h0.7v0.9c0,3.1,2.5,5.5,5.5,5.5h9.2c3.1,0,5.5-2.5,5.5-5.5v-0.9
		h0.6v-3.2h-0.8L418.8,11.2L418.8,11.2z M399.5,24.1V11.2h8.4l0.3,13.3h-3.4V24L399.5,24.1L399.5,24.1z M411.8,25.1v3.3h-0.6v-3.3
		H411.8z M410.7,28.4h-0.6v-3.3h0.6V28.4z M406.5,25.1v3.3h-0.6v-3.3H406.5z M406.9,25.1h0.6v3.3h-0.6V25.1z M408,25.1h0.6v3.3H408
		V25.1z M409.1,25.1h0.6v3.3h-0.6V25.1z M404.9,25.1h0.6v3.3h-0.6V25.1z M412.2,28.4v-3.3h0.6v3.3H412.2z M412.8,24.1v0.5h-3.1
		l0.5-13.3h8.1v12.9L412.8,24.1L412.8,24.1z"/>
	<path class="st0" d="M267.4,11.2h2.2c-0.3-2.9-5.2-5.2-11.2-5.3c0-0.1,0.1-0.2,0.1-0.3c0-0.5-0.4-1-1-1c-0.5,0-1,0.4-1,1
		c0,0.1,0,0.2,0.1,0.4c-5.9,0.2-10.6,2.4-10.9,5.2h1.9v12.9h-0.9v3.2h0.7v0.9c0,3.1,2.5,5.5,5.5,5.5h9.2c3.1,0,5.5-2.5,5.5-5.5v-0.9
		h0.6v-3.2h-0.8C267.4,24.1,267.4,11.2,267.4,11.2z M248.1,24.1V11.2h8.4l0.3,13.3h-3.4V24L248.1,24.1L248.1,24.1z M260.4,25.1v3.3
		h-0.6v-3.3H260.4z M259.3,28.4h-0.6v-3.3h0.6V28.4z M255.1,25.1v3.3h-0.6v-3.3H255.1z M255.5,25.1h0.6v3.3h-0.6V25.1z M256.6,25.1
		h0.6v3.3h-0.6V25.1z M257.7,25.1h0.6v3.3h-0.6C257.7,28.4,257.7,25.1,257.7,25.1z M253.5,25.1h0.5v3.3h-0.6v-3.3H253.5z
		 M260.8,28.4v-3.3h0.6v3.3H260.8z M261.4,24.1v0.5h-3.1l0.5-13.3h8.1v12.9L261.4,24.1L261.4,24.1z"/>
	<path class="st0" d="M402.8-22.5h2.2c-0.3-2.9-5.2-5.2-11.2-5.3c0-0.1,0.1-0.2,0.1-0.3c0-0.5-0.4-1-1-1c-0.5,0-1,0.4-1,1
		c0,0.1,0,0.2,0.1,0.4c-5.9,0.2-10.5,2.5-10.9,5.3h1.9v12.8h-1v3.2h0.7v0.9c0,3.1,2.5,5.5,5.5,5.5h9.2c3.1,0,5.5-2.5,5.5-5.5v-0.9
		h0.6v-3.2h-0.8L402.8-22.5L402.8-22.5z M383.5-9.6v-12.9h8.4l0.3,13.3h-3.4v-0.4H383.5z M395.8-8.6v3.3h-0.6v-3.3H395.8z
		 M394.7-5.3h-0.6v-3.3h0.6V-5.3z M390.5-8.6v3.3h-0.6v-3.3H390.5z M390.9-8.6h0.6v3.3h-0.6V-8.6z M392-8.6h0.6v3.3H392V-8.6z
		 M393.1-8.6h0.6v3.3h-0.6V-8.6z M388.9-8.6h0.6v3.3h-0.6V-8.6z M396.2-5.3v-3.3h0.6v3.3H396.2z M396.8-9.6v0.5h-3.1l0.5-13.3h8.1
		v12.8H396.8z"/>
	<path class="st0" d="M281.7-22.5h2.2c-0.3-2.9-5.2-5.2-11.2-5.3c0-0.1,0.1-0.2,0.1-0.3c0-0.5-0.4-1-1-1c-0.5,0-1,0.4-1,1
		c0,0.1,0,0.2,0.1,0.4c-5.9,0.1-10.6,2.4-10.9,5.2h1.9v12.9H261v3.2h0.7v0.9c0,3.1,2.5,5.5,5.5,5.5h9.2c3.1,0,5.5-2.5,5.5-5.5v-0.9
		h0.6v-3.2h-0.8C281.7-9.6,281.7-22.5,281.7-22.5z M262.4-9.6v-12.9h8.4l0.3,13.3h-3.4v-0.4H262.4z M274.7-8.6v3.3H274v-3.3H274.7z
		 M273.6-5.3H273v-3.3h0.6V-5.3z M269.4-8.6v3.3h-0.6v-3.3H269.4z M269.8-8.6h0.6v3.3h-0.6V-8.6z M270.9-8.6h0.6v3.3h-0.6V-8.6z
		 M271.9-8.6h0.6v3.3h-0.6V-8.6z M267.7-8.6h0.6v3.3h-0.6V-8.6z M275.1-5.3v-3.3h0.6v3.3H275.1z M275.7-9.6v0.5h-3.1l0.5-13.3h8.1
		v12.8H275.7z"/>
	<path class="st0" d="M418.3,48h2.2c-0.3-2.9-5.2-5.2-11.2-5.3c0-0.1,0.1-0.2,0.1-0.3c0-0.5-0.4-1-1-1c-0.6,0-1,0.4-1,1
		c0,0.1,0,0.2,0.1,0.4c-5.9,0.2-10.5,2.5-10.9,5.3h1.9V61h-0.9v3.2h0.7v0.9c0,3.1,2.5,5.5,5.5,5.5h9.2c3.1,0,5.5-2.5,5.5-5.5v-0.9
		h0.6V61h-0.8L418.3,48L418.3,48z M399,60.8V47.9h8.4l0.3,13.3h-3.4v-0.5L399,60.8L399,60.8z M411.3,61.9v3.3h-0.6v-3.3H411.3z
		 M410.2,65.2h-0.6v-3.3h0.6V65.2z M406,61.9v3.3h-0.6v-3.3H406z M406.4,61.9h0.6v3.3h-0.6V61.9z M407.5,61.9h0.6v3.3h-0.6V61.9z
		 M408.6,61.9h0.6v3.3h-0.6V61.9z M404.4,61.9h0.6v3.3h-0.6V61.9z M411.7,65.2v-3.3h0.6v3.3H411.7z M412.3,60.8v0.5h-3.1l0.5-13.3
		h8.1v12.9L412.3,60.8L412.3,60.8z"/>
	<path class="st0" d="M402.4,80.3h2.2c-0.3-2.9-5.2-5.2-11.2-5.3c0-0.1,0.1-0.2,0.1-0.3c0-0.5-0.4-1-1-1c-0.5,0-1,0.4-1,1
		c0,0.1,0,0.2,0.1,0.4c-5.9,0.2-10.5,2.5-10.9,5.3h1.9v12.9h-0.9v3.2h0.7v0.9c0,3.1,2.5,5.5,5.5,5.5h9.2c3.1,0,5.5-2.5,5.5-5.5v-1
		h0.6v-3.2h-0.8L402.4,80.3L402.4,80.3z M383.1,93.2V80.3h8.4l0.3,13.3h-3.4v-0.5L383.1,93.2L383.1,93.2z M395.3,94.2v3.3h-0.6v-3.3
		H395.3z M394.3,97.5h-0.6v-3.3h0.6V97.5z M390,94.2v3.3h-0.6v-3.3H390z M390.5,94.2h0.6v3.3h-0.6V94.2z M391.6,94.2h0.6v3.3h-0.6
		V94.2z M392.6,94.2h0.6v3.3h-0.6V94.2z M388.4,94.2h0.6v3.3h-0.6V94.2z M395.8,97.5v-3.3h0.6v3.3H395.8z M396.4,93.2v0.5h-3.1
		l0.5-13.3h8.1v12.9L396.4,93.2L396.4,93.2z"/>
	<path class="st0" d="M281.8,75.5h2.2c-0.3-2.9-5.2-5.2-11.2-5.3c0-0.1,0.1-0.2,0.1-0.3c0-0.5-0.4-1-1-1c-0.5,0-1,0.4-1,1
		c0,0.1,0,0.2,0.1,0.4c-5.9,0.2-10.5,2.5-10.9,5.3h1.9v12.9h-0.9v3.2h0.7v0.9c0,3.1,2.5,5.5,5.5,5.5h9.2c3.1,0,5.5-2.5,5.5-5.5v-0.9
		h0.6v-3.2h-0.8V75.5L281.8,75.5z M262.5,88.3V75.4h8.4l0.3,13.3h-3.4v-0.5L262.5,88.3L262.5,88.3z M274.8,89.3v3.3h-0.6v-3.3H274.8
		z M273.7,92.6h-0.6v-3.3h0.6V92.6z M269.5,89.3v3.3h-0.6v-3.3H269.5z M269.9,89.3h0.6v3.3h-0.6V89.3z M271,89.3h0.6v3.3H271V89.3z
		 M272.1,89.3h0.6v3.3h-0.6V89.3z M267.9,89.3h0.6v3.3h-0.6V89.3z M275.2,92.6v-3.3h0.6v3.3H275.2z M275.8,88.3v0.5h-3.1l0.5-13.3
		h8.1v12.9L275.8,88.3L275.8,88.3z"/>
	<path class="st0" d="M308.4,100.3h2.2c-0.3-2.9-5.2-5.2-11.2-5.3c0-0.1,0.1-0.2,0.1-0.3c0-0.5-0.4-1-1-1c-0.5,0-1,0.4-1,1
		c0,0.1,0,0.2,0.1,0.4c-5.9,0.2-10.5,2.5-10.9,5.3h1.9v12.9h-0.9v3.2h0.7v0.9c0,3.1,2.5,5.5,5.5,5.5h9.2c3.1,0,5.5-2.5,5.5-5.5v-0.9
		h0.6v-3.2h-0.8V100.3L308.4,100.3z M289.1,113.1v-12.9h8.4l0.3,13.3h-3.4V113L289.1,113.1L289.1,113.1z M301.4,114.2v3.3h-0.6v-3.3
		H301.4z M300.3,117.4h-0.6v-3.3h0.6V117.4z M296.1,114.2v3.3h-0.6v-3.3H296.1z M296.5,114.2h0.6v3.3h-0.6V114.2z M297.6,114.2h0.6
		v3.3h-0.6V114.2z M298.7,114.2h0.6v3.3h-0.6V114.2z M294.5,114.2h0.6v3.3h-0.6V114.2z M301.8,117.4v-3.3h0.6v3.3H301.8z
		 M302.4,113.1v0.5h-3.1l0.5-13.3h8.1v12.9L302.4,113.1L302.4,113.1z"/>
	<path class="st0" d="M374,100.3h2.2c-0.3-2.9-5.2-5.2-11.2-5.3c0-0.1,0.1-0.2,0.1-0.3c0-0.5-0.4-1-1-1c-0.5,0-1,0.4-1,1
		c0,0.1,0,0.2,0.1,0.4c-5.9,0.2-10.5,2.5-10.9,5.3h1.9v12.9h-0.9v3.2h0.7v0.9c0,3.1,2.5,5.5,5.5,5.5h9.2c3.1,0,5.5-2.5,5.5-5.5v-0.9
		h0.6v-3.2H374V100.3z M354.7,113.1v-12.9h8.4l0.3,13.3H360V113L354.7,113.1L354.7,113.1z M367,114.2v3.3h-0.6v-3.3H367z
		 M365.9,117.4h-0.6v-3.3h0.6V117.4z M361.7,114.2v3.3h-0.6v-3.3H361.7z M362.1,114.2h0.6v3.3h-0.6V114.2z M363.2,114.2h0.6v3.3
		h-0.6V114.2z M364.2,114.2h0.6v3.3h-0.6V114.2z M360,114.2h0.6v3.3H360V114.2z M367.4,117.4v-3.3h0.6v3.3H367.4z M368,113.1v0.5
		h-3.1l0.5-13.3h8.1v12.9L368,113.1L368,113.1z"/>
	<path class="st0" d="M267.1,45.8h2.2c-0.3-2.9-5.2-5.2-11.2-5.3c0-0.1,0.1-0.2,0.1-0.3c0-0.5-0.4-1-1-1c-0.5,0-1,0.4-1,1
		c0,0.1,0,0.2,0.1,0.4c-5.9,0.2-10.5,2.5-10.9,5.3h1.9v12.9h-0.9V62h0.6v0.9c0,3.1,2.5,5.5,5.5,5.5h9.2c3.1,0,5.5-2.5,5.5-5.5V62
		h0.6v-3.2H267v-13H267.1z M247.8,58.6V45.7h8.4l0.3,13.3h-3.4v-0.5L247.8,58.6L247.8,58.6z M260,59.6v3.3h-0.6v-3.3H260z M259,62.9
		h-0.6v-3.3h0.6V62.9z M254.7,59.6v3.3h-0.6v-3.3H254.7z M255.2,59.6h0.6v3.3h-0.6V59.6z M256.2,59.6h0.6v3.3h-0.6V59.6z
		 M257.3,59.6h0.6v3.3h-0.6V59.6z M253.1,59.6h0.6v3.3h-0.6V59.6z M260.5,62.9v-3.3h0.5v3.3H260.5z M261,58.6v0.5h-3.1l0.5-13.3h8.1
		v12.9L261,58.6L261,58.6z"/>
	<path class="st0" d="M309.4-43.3h2.2c-0.3-2.9-5.2-5.2-11.2-5.3c0-0.1,0.1-0.2,0.1-0.3c0-0.5-0.4-1-1-1c-0.5,0-1,0.4-1,1
		c0,0.1,0,0.2,0.1,0.4c-5.9,0.2-10.5,2.5-10.9,5.3h1.9v12.9h-0.9v3.2h0.7v0.9c0,3.1,2.5,5.5,5.5,5.5h9.2c3.1,0,5.5-2.5,5.5-5.5v-0.9
		h0.6v-3.2h-0.8V-43.3L309.4-43.3z M290.1-30.4v-12.9h8.4l0.3,13.3h-3.4v-0.5h-5.3V-30.4z M302.3-29.4v3.3h-0.6v-3.3H302.3z
		 M301.3-26.1h-0.6v-3.3h0.6V-26.1z M297-29.4v3.3h-0.6v-3.3H297z M297.5-29.4h0.6v3.3h-0.6V-29.4z M298.6-29.4h0.6v3.3h-0.6V-29.4z
		 M299.6-29.4h0.6v3.3h-0.6V-29.4z M295.4-29.4h0.6v3.3h-0.6V-29.4z M302.8-26.1v-3.3h0.6v3.3H302.8z M303.4-30.4v0.5h-3.1l0.5-13.3
		h8.1v12.9h-5.5V-30.4z"/>
	<path class="st0" d="M374.3-43.3h2.2c-0.3-2.9-5.2-5.2-11.2-5.3c0-0.1,0.1-0.2,0.1-0.3c0-0.5-0.4-1-1-1c-0.6,0-1,0.4-1,1
		c0,0.1,0,0.2,0.1,0.4c-5.9,0.2-10.5,2.5-10.9,5.3h1.9v12.9h-0.9v3.2h0.7v0.9c0,3.1,2.5,5.5,5.5,5.5h9.2c3.1,0,5.5-2.5,5.5-5.5v-0.9
		h0.6v-3.2h-0.8L374.3-43.3L374.3-43.3z M355-30.4v-12.9h8.4l0.3,13.3h-3.4v-0.5H355V-30.4z M367.2-29.4v3.3h-0.6v-3.3H367.2z
		 M366.2-26.1h-0.6v-3.3h0.6V-26.1z M361.9-29.4v3.3h-0.6v-3.3H361.9z M362.4-29.4h0.6v3.3h-0.6V-29.4z M363.4-29.4h0.6v3.3h-0.6
		V-29.4z M364.5-29.4h0.6v3.3h-0.6V-29.4z M360.3-29.4h0.6v3.3h-0.6V-29.4z M367.7-26.1v-3.3h0.6v3.3H367.7z M368.2-30.4v0.5h-3.1
		l0.5-13.3h8.1v12.9h-5.5V-30.4z"/>
	<path class="st0" d="M332.7,118c-46.2,0-83.8-37.6-83.8-83.8s37.6-83.8,83.8-83.8s83.8,37.6,83.8,83.8S378.9,118,332.7,118z
		 M332.7-45.6c-44,0-79.8,35.8-79.8,79.8s35.8,79.8,79.8,79.8s79.8-35.8,79.8-79.8S376.7-45.6,332.7-45.6z"/>
	<path class="st0" d="M332.7,113c-43.4,0-78.8-35.3-78.8-78.8c0-43.4,35.3-78.8,78.8-78.8c43.4,0,78.8,35.3,78.8,78.8
		C411.5,77.6,376.1,113,332.7,113z M332.7-42.6c-42.3,0-76.8,34.4-76.8,76.8c0,42.3,34.4,76.8,76.8,76.8c42.3,0,76.8-34.4,76.8-76.8
		C409.5-8.1,375-42.6,332.7-42.6z"/>
	<circle class="st0" cx="332.7" cy="34.2" r="9.1"/>
	<path class="st0" d="M313.3,74.1L302.9,58l-13.5-13.6l6.1-18.2l2.2-19.1l18-6.6L332-9.6l16.4,10l18.1,6.4l2.4,19l6.3,18.1
		l-13.4,13.7l-10.2,16.2l-19.1-1.9L313.3,74.1z M291.8,43.9l12.8,12.9l9.8,15.1l18-2h0.1l17.9,1.8l9.7-15.4l12.5-12.9l-5.9-17.2
		l-2.2-17.8l-17.1-6.1L332-7l-15.4,9.6l-16.9,6.2l-2.1,18.1L291.8,43.9z"/>
	<path class="st0" d="M315.8,68.6l-9-14L295,42.8l5.3-15.8l1.9-16.5l15.6-5.7L331.9-4l14.2,8.7l15.7,5.5l2.1,16.5l5.5,15.7l-11.6,12
		l-8.9,14.1l-16.6-1.6L315.8,68.6z M297.3,42.3l11.1,11.2l8.4,13l15.5-1.7h0.1l15.5,1.5l8.4-13.3l10.8-11.1L362,27.1l-1.9-15.4
		l-14.8-5.3L332-1.7l-13.4,8.3L304,11.9l-1.8,15.6L297.3,42.3z"/>
	<polygon class="st0" points="331.7,38.8 331.7,-43.6 333.7,-43.6 333.7,29.6 363.9,-36.7 365.8,-35.9 	"/>
	<polygon class="st0" points="328.7,36.2 392.1,-15.8 393.4,-14.2 336.7,32.2 408.2,14.9 408.6,16.9 	"/>
	
		<rect x="276.8" y="-2.1" transform="matrix(-0.4149 -0.9099 0.9099 -0.4149 447.3716 285.5201)" class="st0" width="77.4" height="2"/>
	<polygon class="st0" points="335.6,36.2 256.7,16.9 257.2,14.9 327.6,32.2 270.9,-14.2 272.2,-15.8 	"/>
	<polygon class="st0" points="408.5,52.5 332.7,34.6 257.4,52 256.9,50.1 332.7,32.5 408.9,50.5 	"/>
	
		<rect x="301.3" y="19.4" transform="matrix(-0.6192 -0.7853 0.7853 -0.6192 443.8734 331.4173)" class="st0" width="2" height="77.3"/>
	<polygon class="st0" points="333.7,112 331.7,112 331.7,29.7 366.4,104.2 364.6,105.1 333.7,38.7 	"/>
	
		<rect x="323.9" y="57.7" transform="matrix(-0.7747 -0.6323 0.6323 -0.7747 606.744 333.6335)" class="st0" width="77.8" height="2"/>
	<polygon class="st0" points="285.7,133.9 331.6,38.2 328.3,36.9 261.8,133.3 	"/>
	<polygon class="st0" points="380.8,135.2 334.9,39.5 338.2,38.2 404.7,134.6 	"/>
	<rect x="261.8" y="133" class="st0" width="23.9" height="22.2"/>
	<rect x="380.8" y="134.4" class="st0" width="23.9" height="20.7"/>
	<rect x="275.8" y="138.6" class="st0" width="118.3" height="2"/>
	<rect x="275.8" y="153.2" class="st0" width="118.3" height="2"/>
	<rect x="290.4" y="139.9" class="st0" width="1.3" height="14.3"/>
	<rect x="296" y="139.9" class="st0" width="1.3" height="14.3"/>
	<rect x="301.7" y="139.9" class="st0" width="1.3" height="14.3"/>
	<rect x="307.3" y="139.9" class="st0" width="1.3" height="14.3"/>
	<rect x="313" y="139.9" class="st0" width="1.3" height="14.3"/>
	<rect x="318.6" y="139.9" class="st0" width="1.3" height="14.3"/>
	<rect x="324.3" y="139.9" class="st0" width="1.3" height="14.3"/>
	<rect x="329.9" y="139.9" class="st0" width="1.3" height="14.3"/>
	<rect x="335.6" y="139.9" class="st0" width="1.3" height="14.3"/>
	<rect x="341.2" y="139.9" class="st0" width="1.3" height="14.3"/>
	<rect x="346.9" y="139.9" class="st0" width="1.3" height="14.3"/>
	<rect x="352.5" y="139.9" class="st0" width="1.3" height="14.3"/>
	<rect x="358.2" y="139.9" class="st0" width="1.3" height="14.3"/>
	<rect x="363.8" y="139.9" class="st0" width="1.3" height="14.3"/>
	<rect x="369.5" y="139.9" class="st0" width="1.3" height="14.3"/>
	<rect x="375.1" y="139.9" class="st0" width="1.3" height="14.3"/>
	<rect x="258.5" y="153.9" class="st0" width="150.9" height="5.3"/>
	<rect x="258.5" y="153.9" class="st0" width="150.9" height="5.3"/>
	<rect x="248.5" y="157.9" class="st0" width="170.9" height="5.3"/>
</g>
<g>
	<path class="st0" d="M219.4,166.2L219.4,166.2c-0.7,0-1.3-0.6-1.3-1.3v-61.5c0-0.7,0.6-1.3,1.3-1.3l0,0c0.7,0,1.3,0.6,1.3,1.3v61.5
		C220.8,165.6,220.2,166.2,219.4,166.2z"/>
	<polygon class="st0" points="219.9,112.6 205.7,112.6 202.4,110.2 205.7,107.3 219.9,107.3 	"/>
	<polygon class="st0" points="219.2,115.7 232,115.7 235.3,118.2 232,121 219.2,121 	"/>
</g>
<g>
	<circle class="st0" cx="466.3" cy="113.3" r="1.2"/>
	<path class="st0" d="M466.3,113.3c-1.8,0-3.3,1.5-3.3,3.3h6.7C469.6,114.8,468.1,113.3,466.3,113.3z"/>
	<polygon class="st0" points="466.3,117 463.1,117 464.7,123.4 466.3,123.4 467.9,123.4 469.4,117 	"/>
	<rect x="463.8" y="155.7" class="st0" width="4.8" height="6.1"/>
	<rect x="465" y="130.5" class="st0" width="2.5" height="25.3"/>
	<rect x="465.6" y="124.3" class="st0" width="1.2" height="5.9"/>
	<rect x="463.8" y="153.1" class="st0" width="4.8" height="2.9"/>
	<rect x="464.2" y="129.8" class="st0" width="4.1" height="1.9"/>
	<path class="st0" d="M468.9,161.6h-5.3c-0.8,0-1.4,0.6-1.4,1.4h8.2C470.3,162.2,469.7,161.6,468.9,161.6z"/>
	<polygon class="st0" points="466.3,117 462.8,117 464.5,123.4 466.3,123.4 468,123.4 469.7,117 	"/>
	<g>
		<polygon class="st0" points="464,117 465.2,123.4 465.5,123.4 465.8,123.4 464.6,117 		"/>
		<polygon class="st0" points="468.5,117 467.3,123.4 467,123.4 466.7,123.4 467.9,117 		"/>
	</g>
	<rect x="464.2" y="123.2" class="st0" width="4.1" height="1.2"/>
	<path class="st0" d="M470.5,116.8c0,0.3-0.2,0.5-0.5,0.5h-7.4c-0.3,0-0.5-0.2-0.5-0.5l0,0c0-0.3,0.2-0.5,0.5-0.5h7.4
		C470.2,116.2,470.5,116.5,470.5,116.8L470.5,116.8z"/>
</g>
<g>
	<g>
		<path class="st0" d="M500.8,157.9v-11.3c0-0.7-0.6-1.4-1.4-1.4s-1.4,0.6-1.4,1.4v11.3H500.8z"/>
		<path class="st0" d="M530,157.9v-11.3c0-0.7-0.6-1.4-1.4-1.4c-0.8,0-1.4,0.6-1.4,1.4v11.3H530z"/>
		<polygon class="st0" points="496.8,157.3 496.8,164.3 499.3,164.3 499.3,160.8 529.2,160.8 529.2,164.3 531.6,164.3 531.6,157.3 
					"/>
		<path class="st0" d="M535.9,156.3c0,0.7-0.6,1.4-1.4,1.4h-40.6c-0.7,0-1.4-0.6-1.4-1.4l0,0c0-0.7,0.6-1.4,1.4-1.4h40.6
			C535.3,155,535.9,155.6,535.9,156.3L535.9,156.3z"/>
		<path class="st0" d="M534.8,148.2c0,0.7-0.6,1.4-1.4,1.4H495c-0.7,0-1.4-0.6-1.4-1.4l0,0c0-0.7,0.6-1.4,1.4-1.4h38.4
			C534.2,146.9,534.8,147.5,534.8,148.2L534.8,148.2z"/>
		<circle class="st0" cx="499.5" cy="148.2" r="0.7"/>
		<circle class="st0" cx="528.6" cy="148.2" r="0.7"/>
		<path class="st0" d="M534.8,152.4c0,0.7-0.6,1.4-1.4,1.4H495c-0.7,0-1.4-0.6-1.4-1.4l0,0c0-0.7,0.6-1.4,1.4-1.4h38.4
			C534.2,151,534.8,151.6,534.8,152.4L534.8,152.4z"/>
		<circle class="st0" cx="499.5" cy="152.4" r="0.7"/>
		<circle class="st0" cx="528.6" cy="152.4" r="0.7"/>
	</g>
</g>
</svg>
