<?xml version="1.0" encoding="utf-8"?>
<!-- Generator: Adobe Illustrator 19.1.0, SVG Export Plug-In . SVG Version: 6.00 Build 0)  -->
<svg version="1.1" id="Слой_1" xmlns="http://www.w3.org/2000/svg" xmlns:xlink="http://www.w3.org/1999/xlink" x="0px" y="0px"
	 viewBox="244 -54 900 900" style="enable-background:new 244 -54 900 900;" xml:space="preserve">
<style type="text/css">
	.st0{fill:#FFFFFF;}
	.st1{fill:#C8C7C9;}
	.st2{fill:#FF6C6C;}
	.st3{fill:#F5D76E;}
	.st4{fill:#75C667;}
	.st5{fill:#949494;}
	.st6{fill:#E6E6E6;}
	.st7{fill:#D1D1D1;}
	.st8{fill:#CCCCCC;}
</style>
<g id="bg">
</g>
<g id="shadow">
</g>
<g id="browser">
	<g>
		<path class="st0" d="M256.1,679.6V122.4c0-5.5,4.5-10,10-10H1122c5.5,0,10,4.5,10,10v557.2H256.1z"/>
		<path class="st1" d="M256.1,191.3v-68.9c0-5.5,4.5-10,10-10H1122c5.5,0,10,4.5,10,10v68.9H256.1z"/>
		<g>
			<circle class="st2" cx="277.2" cy="133.4" r="6.6"/>
			<circle class="st3" cx="299.4" cy="133.4" r="6.6"/>
			<circle class="st4" cx="321.5" cy="133.4" r="6.6"/>
		</g>
		<path class="st5" d="M1120.7,122.8h-3.6c-0.7,0-1.2,0.5-1.2,1.2s0.5,1.2,1.2,1.2h0.7l-2.8,2.8c-0.2,0.2-0.4,0.4-0.4,0.8
			c0,0.7,0.5,1.2,1.2,1.2c0.4,0,0.6-0.1,0.8-0.4l2.8-2.8v0.7c0,0.7,0.5,1.2,1.2,1.2s1.2-0.5,1.2-1.2V124
			C1121.9,123.4,1121.4,122.8,1120.7,122.8z M1111.1,132.4c-0.4,0-0.6,0.1-0.8,0.4l-2.8,2.8v-0.7c0-0.7-0.5-1.2-1.2-1.2
			c-0.7,0-1.2,0.5-1.2,1.2v3.6c0,0.7,0.5,1.2,1.2,1.2h3.6c0.7,0,1.2-0.5,1.2-1.2s-0.5-1.2-1.2-1.2h-0.7l2.8-2.8
			c0.2-0.2,0.4-0.4,0.4-0.8C1112.3,133,1111.8,132.4,1111.1,132.4z"/>
		<g>
			<path class="st6" d="M533.1,125.9H349.8c-2.8,0-5.8,2.1-6.9,4.6l-7.1,17.6c-0.6,1.5-2.5,2.8-4.1,2.8h-75.6v43.4H1132v-43.4H551.2
				c-1.7,0-3.5-1.2-4.1-2.8l-7.1-17.6C538.9,128,535.8,125.9,533.1,125.9z"/>
			<circle class="st7" cx="528.4" cy="139.1" r="6.2"/>
		</g>
		<g>
			<path class="st8" d="M304.2,173.9c0,0.8,0.6,1.4,1.4,1.4h9.4l-3.3,3.3c-0.3,0.3-0.4,0.6-0.4,1c0,0.7,0.6,1.4,1.4,1.4
				c0.4,0,0.7-0.1,1-0.4l5.7-5.7c0.3-0.3,0.5-0.5,0.5-1s-0.2-0.8-0.5-1l-5.7-5.7c-0.3-0.3-0.6-0.4-1-0.4c-0.8,0-1.4,0.7-1.4,1.4
				c0,0.4,0.1,0.7,0.4,1l3.3,3.3h-9.4C304.9,172.4,304.2,173.1,304.2,173.9z"/>
			<path class="st5" d="M284.9,172.4h-9.4l3.3-3.3c0.3-0.3,0.4-0.6,0.4-1c0-0.7-0.6-1.4-1.4-1.4c-0.4,0-0.7,0.1-1,0.4l-5.7,5.7
				c-0.2,0.2-0.5,0.5-0.5,1s0.2,0.8,0.5,1l5.7,5.7c0.3,0.3,0.6,0.4,1,0.4c0.8,0,1.4-0.7,1.4-1.4c0-0.4-0.1-0.7-0.4-1l-3.3-3.3h9.4
				c0.8,0,1.4-0.6,1.4-1.4C286.3,173.1,285.6,172.4,284.9,172.4z"/>
		</g>
		<path class="st5" d="M1106,169.6h12.9c0.7,0,1.4-0.6,1.4-1.4s-0.6-1.4-1.4-1.4H1106c-0.7,0-1.4,0.6-1.4,1.4
			S1105.3,169.6,1106,169.6z M1118.9,172.3H1106c-0.7,0-1.4,0.6-1.4,1.4c0,0.7,0.6,1.4,1.4,1.4h12.9c0.7,0,1.4-0.6,1.4-1.4
			S1119.6,172.3,1118.9,172.3z M1118.9,177.7H1106c-0.7,0-1.4,0.6-1.4,1.4c0,0.7,0.6,1.4,1.4,1.4h12.9c0.7,0,1.4-0.6,1.4-1.4
			C1120.3,178.3,1119.6,177.7,1118.9,177.7z"/>
		<g>
			<path class="st0" d="M1090.2,186.4h-732c-2.8,0-5-2.2-5-5v-15.5c0-2.8,2.2-5,5-5h731.9c2.8,0,5,2.2,5,5v15.5
				C1095.2,184.2,1092.9,186.4,1090.2,186.4z"/>
			<path class="st8" d="M373.1,173.9c-0.5,0-0.8,0.4-0.9,0.8c-0.3,1.5-1.7,3.7-4.5,3.7c-2.5,0-4.5-2-4.5-4.4c0-2.5,2-4.5,4.5-4.5
				c1,0,1.9,0.3,2.7,0.9h-0.9c-0.5,0-0.9,0.4-0.9,0.9s0.4,0.9,0.9,0.9h2.7c0.5,0,0.9-0.4,0.9-0.9v-2.7c0-0.5-0.4-0.9-0.9-0.9
				s-0.9,0.4-0.9,0.9v0.2c-1-0.7-2.2-1.1-3.6-1.1c-3.4,0-6.2,2.8-6.2,6.2c0,3.4,2.8,6.2,6.2,6.2c4.4,0,6.2-4.2,6.2-5.3
				C374,174.2,373.6,173.9,373.1,173.9z"/>
			<path class="st8" d="M1078,168.5l1,3.2h3.4c1.5,0,1.7,0.7,0.5,1.6l-2.7,2l1,3.2c0.5,1.4-0.1,1.9-1.4,1l-2.7-2l-2.7,2
				c-1.2,0.9-1.8,0.4-1.4-1l1-3.2l-2.7-2c-1.2-0.9-1-1.6,0.5-1.6h3.3l1-3.2C1076.8,167.1,1077.5,167.1,1078,168.5z"/>
		</g>
		<g>
			<path class="st5" d="M554.6,138.1c0,0.6,0.5,1,1,1h9.8c0.6,0,1-0.5,1-1l0,0c0-0.6-0.5-1-1-1h-9.8
				C555.1,137.1,554.6,137.5,554.6,138.1L554.6,138.1z"/>
			<path class="st5" d="M560.5,144c0.6,0,1-0.5,1-1v-9.8c0-0.6-0.5-1-1-1l0,0c-0.6,0-1,0.5-1,1v9.8C559.5,143.6,560,144,560.5,144
				L560.5,144z"/>
		</g>
	</g>
</g>
</svg>
