<?xml version="1.0" encoding="utf-8"?>
<!-- Generator: Adobe Illustrator 19.1.0, SVG Export Plug-In . SVG Version: 6.00 Build 0)  -->
<svg version="1.1" id="Слой_1" xmlns="http://www.w3.org/2000/svg" xmlns:xlink="http://www.w3.org/1999/xlink" x="0px" y="0px"
	 viewBox="0 0 566.9 113.4" style="enable-background:new 0 0 566.9 113.4;" xml:space="preserve">
<style type="text/css">
	.st0{fill-rule:evenodd;clip-rule:evenodd;fill:#DDDDDD;}
</style>
<path class="st0" d="M566.8,79.7l-3.2,1l0,5.2l-1.2,0.5l0,0.7l-0.9,0.3l0,3.7h-0.6l0-30.3l-2-0.3l-0.1-5.8l-20.2-1.5l-1.3,0.6l0,2
	l-1.1,0.7l-0.3,13l-3-0.2l-3,1.8l-0.1,8.5l-7.9-0.3l-2.2,1.4l-0.1,1l-0.4,0.1l0,20h-1l0-2.9l-3.1-0.1l-0.1-3.9l-0.7-0.3l0.2-26.3
	l-0.5-0.3l-0.1-2.5l-7.5-0.6l-1.5,1.2l-0.8,0.6v1.8l-0.8,0.7l0,17.6l-2.4-0.1l-0.2-0.9l-4.9-0.6l-0.5,0.3l-0.1,0.8l-2-0.1l-0.2-12.3
	l-1.3-0.1l-0.2-2.4l-2.4-2.7l-6.8-0.3l-3.1,3.4l-0.2,1.1l-1.2,1.2l-0.2,14l-0.6-0.1v-7.9l-0.5-0.5c0,0-0.4-1.5-1-2.2
	c-0.6-0.7-2.8-1.6-4.6-0.4c-1.8,1.2-2.6,4-2.6,4s-0.4,0-1,0.3l-1.1-0.3l0-11l-0.1-19.3l0.4,0v-0.4c0-0.1-4.5-2-4.5-2l-5.7-0.4
	l-0.1-12.9l-1.3-0.6L455,20.4l-1.3-0.5l-0.1-0.8l-1.8-0.7h-8.1l-2.8,0.8l-0.1,0.8l-1.4,0.6l0.3,16.8l-9.3,0.3l-7.8,2.4l-1.1,4.7
	l0,0.5l0.6,0l0,6.9l-3.1-0.1l-0.3-4.4l-1.3,0l-0.1-2.4l-4.3-0.2l0-0.9l-5.8-0.4l-0.2-8.2L396,34.7l-7.1,2.1l0.1,23.7l-2.1-0.1
	l-0.2-12.8l-15.4-1l-4.8,1.4l0.1,20.3l-1.2-0.6l-1.9-0.1l-0.2-36l-1.3-0.2l-0.1-9.5c0,0,0.1-0.2-0.3-0.6c-0.4-0.4-2.5-1.2-2.5-1.2
	l-0.1-1.1l-4.9-4l-0.1-1.5l-1.5,0l-0.2,1.5l-4.1,4.3c0,0-1.7-0.1-2.3,0.4c-0.6,0.4-1.2,1.9-1.4,2.4c-0.1,0.5,0,10.5,0,10.5l-1.1,0.5
	l-0.1,19l-4-0.2l-3.7,1.2l0,5.9l-1.3,0.5l0,0.8l-1,0.3l0,4.2h-0.7l0-34.4l-2.3-0.4l-0.1-6.6l-22.9-1.7l-1.4,0.7l0,2.3l-1.3,0.8
	l-0.3,14.8l-3.4-0.3l-3.4,2l-0.1,9.6l-8.9-0.3l-2.5,1.6l-0.1,1.2l-0.5,0.1l0,22.7h-1.2l0-3.2l-3.5-0.1l-0.1-4.4l-0.8-0.3l0.2-29.8
	l-0.6-0.3l-0.1-2.8l-8.5-0.7l-1.7,1.4l-0.9,0.7v2l-0.9,0.8l0,20l-2.7-0.1l-0.2-1l-5.6-0.6l-0.6,0.3l-0.1,0.9l-2.3-0.1l-0.3-14
	l-1.4-0.2l-0.2-2.8l-2.7-3l-7.8-0.4l-3.5,3.8l-0.2,1.2l-1.4,1.4l-0.2,15.9l-0.7-0.1v-9l-0.6-0.6c0,0-0.4-1.7-1.1-2.5
	c-0.7-0.8-3.2-1.9-5.3-0.5c-2,1.4-2.9,4.6-2.9,4.6s-0.7,0-1.7,0.8c-1.1,0.8-2.1,3.1-2.1,3.1l-4.9,0.1l0,0.8l-2.5,0.1l-0.4,0.5v17.7
	l-4-0.3L211.9,65l-1.2-0.6l-0.1-12.5l-1.1-0.4l-0.1-0.7l-1.6-0.6h-7.1l-2.4,0.7l-0.1,0.7l-1.2,0.5l0.2,14.8l-8.2,0.3l-6.8,2.1
	l-1,4.1l0,0.4l0.5,0l0,6.1l-2.7-0.1l-0.2-3.9l-1.2,0l-0.1-2.1l-3.8-0.2l0-0.8l-5.1-0.3l-0.1-7.2l-9.5-0.8l-6.3,1.8l0.1,20.9
	l-1.9-0.1l-0.1-11.3L136.8,75l-4.2,1.3l0.1,17.9l-1.1-0.5l-1.7-0.1l-0.1-31.7l-1.1-0.1l-0.1-8.3c0,0,0.1-0.2-0.3-0.6
	c-0.3-0.4-2.2-1-2.2-1l-0.1-1l-4.3-3.5l-0.1-1.3l-1.3,0l-0.2,1.3l-3.6,3.8c0,0-1.5-0.1-2,0.3c-0.5,0.4-1.1,1.7-1.2,2.1
	c-0.1,0.4,0,9.2,0,9.2l-0.9,0.5L112,79.9l-3.5-0.2l-3.2,1l0,5.2l-1.2,0.5l0,0.7l-0.9,0.3l0,3.7h-0.6l0-30.3l-2-0.3l-0.1-5.8
	l-20.2-1.5l-1.3,0.6l0,2l-1.1,0.7l-0.3,13l-3-0.2l-3,1.8l-0.1,8.5l-7.9-0.3l-2.2,1.4l-0.1,1l-0.4,0.1l0,20h-1l0-2.9L57,98.9L56.9,95
	l-0.7-0.3l0.2-26.3l-0.5-0.3l-0.1-2.5l-7.5-0.6l-1.5,1.2L46,66.9v1.8l-0.8,0.7l0,17.6L42.8,87l-0.2-0.9l-4.9-0.6l-0.5,0.3l-0.1,0.8
	l-2-0.1l-0.2-12.3L33.6,74l-0.2-2.4l-2.4-2.7l-6.8-0.3l-3.1,3.4L21,73l-1.2,1.2l-0.2,14L19,88.1v-7.9l-0.5-0.5c0,0-0.4-1.5-1-2.2
	c-0.6-0.7-2.8-1.6-4.6-0.4c-1.8,1.2-2.6,4-2.6,4s-0.6,0-1.5,0.7c-0.9,0.7-1.9,2.8-1.9,2.8l-4.4,0.1l0,0.7l-2.2,0.1L0,85.9v27.5h216
	h10.9h231.4h15.2h93.4V79.7L566.8,79.7z"/>
</svg>
