<?xml version="1.0" encoding="utf-8"?>
<!-- Generator: Adobe Illustrator 19.1.0, SVG Export Plug-In . SVG Version: 6.00 Build 0)  -->
<svg version="1.1" id="Слой_1" xmlns="http://www.w3.org/2000/svg" xmlns:xlink="http://www.w3.org/1999/xlink" x="0px" y="0px"
	 viewBox="0 0 226.8 87.9" style="enable-background:new 0 0 226.8 87.9;" xml:space="preserve">
<style type="text/css">
	.st0{fill:#333333;}
</style>
<g>
	<circle class="st0" cx="211" cy="7.7" r="2"/>
	<path class="st0" d="M211,7.7c-3,0-5.4,2.4-5.4,5.4h10.7C216.4,10.1,214,7.7,211,7.7z"/>
	<polygon class="st0" points="211,13.8 206,13.8 208.4,24.1 211,24.1 213.6,24.1 216.1,13.8 	"/>
	<rect x="207.1" y="76.1" class="st0" width="7.8" height="9.8"/>
	<rect x="209" y="35.5" class="st0" width="4" height="40.7"/>
	<rect x="210" y="25.5" class="st0" width="2" height="9.5"/>
	<rect x="207.1" y="72" class="st0" width="7.8" height="4.7"/>
	<rect x="207.7" y="34.4" class="st0" width="6.6" height="3.1"/>
	<path class="st0" d="M215.3,85.6h-8.6c-1.3,0-2.3,1-2.3,2.3h13.1C217.6,86.6,216.6,85.6,215.3,85.6z"/>
	<polygon class="st0" points="211,13.8 205.4,13.8 208.2,24.1 211,24.1 213.9,24.1 216.6,13.8 	"/>
	<g>
		<polygon class="st0" points="207.4,13.8 209.3,24.1 209.8,24.1 210.2,24.1 208.3,13.8 		"/>
		<polygon class="st0" points="214.6,13.8 212.7,24.1 212.3,24.1 211.8,24.1 213.7,13.8 		"/>
	</g>
	<rect x="207.7" y="23.8" class="st0" width="6.6" height="1.9"/>
	<path class="st0" d="M217.8,13.4c0,0.5-0.4,0.8-0.8,0.8h-11.9c-0.5,0-0.8-0.4-0.8-0.8l0,0c0-0.5,0.4-0.8,0.8-0.8H217
		C217.5,12.5,217.8,12.9,217.8,13.4L217.8,13.4z"/>
</g>
<g>
	<circle class="st0" cx="17.1" cy="7.7" r="2"/>
	<path class="st0" d="M17.1,7.7c3,0,5.4,2.4,5.4,5.4H11.7C11.7,10.1,14.1,7.7,17.1,7.7z"/>
	<polygon class="st0" points="17.1,13.8 22.1,13.8 19.7,24.1 17.1,24.1 14.5,24.1 12,13.8 	"/>
	<rect x="13.2" y="76.1" class="st0" width="7.8" height="9.8"/>
	<rect x="15.1" y="35.5" class="st0" width="4" height="40.7"/>
	<rect x="16.1" y="25.5" class="st0" width="2" height="9.5"/>
	<rect x="13.2" y="72" class="st0" width="7.8" height="4.7"/>
	<rect x="13.8" y="34.4" class="st0" width="6.6" height="3.1"/>
	<path class="st0" d="M12.8,85.6h8.6c1.3,0,2.3,1,2.3,2.3H10.5C10.5,86.6,11.5,85.6,12.8,85.6z"/>
	<polygon class="st0" points="17.1,13.8 22.7,13.8 19.9,24.1 17.1,24.1 14.2,24.1 11.5,13.8 	"/>
	<g>
		<polygon class="st0" points="20.7,13.8 18.8,24.1 18.4,24.1 17.9,24.1 19.8,13.8 		"/>
		<polygon class="st0" points="13.5,13.8 15.4,24.1 15.8,24.1 16.3,24.1 14.4,13.8 		"/>
	</g>
	<rect x="13.8" y="23.8" class="st0" width="6.6" height="1.9"/>
	<path class="st0" d="M10.3,13.4c0,0.5,0.4,0.8,0.8,0.8h11.9c0.5,0,0.8-0.4,0.8-0.8l0,0c0-0.5-0.4-0.8-0.8-0.8H11.1
		C10.7,12.5,10.3,12.9,10.3,13.4L10.3,13.4z"/>
</g>
<g>
	<g>
		<g>
			<g>
				<g>
					<path class="st0" d="M119.4,36.7c12.9-0.1,24-0.7,33.1-1.3c28.6-2.1,44.1-5.8,57.5-9.4l-0.2-0.6c-13.4,3.6-28.9,7.4-57.4,9.4
						c-17.4,1.3-42.3,2.1-75.8,0.3c-17.1-1-36.4-2.7-58.1-5.3l-0.1,0.6C63.6,35.7,94.9,36.9,119.4,36.7z"/>
					<path class="st0" d="M113.6,37.5c2,0,3.9,0,5.8,0l0,0c11.5-0.1,22.7-0.6,33.2-1.3c28.8-2.1,44.3-5.8,57.7-9.4l0.8-0.2l-0.5-2.2
						l-0.8,0.2c-13.3,3.6-28.7,7.3-57.3,9.4c-23.6,1.7-48.3,1.8-75.7,0.3c-17.5-1-37.1-2.8-58.1-5.3l-0.8-0.1L17.6,31l0.8,0.1
						C54.6,35.4,85.1,37.5,113.6,37.5z"/>
				</g>
			</g>
			<g>
				<polygon class="st0" points="189.6,30.3 185.6,44.1 177.3,32.2 				"/>
				<polygon class="st0" points="161.9,33.9 156.8,47.3 149.5,34.9 				"/>
				<polygon class="st0" points="104.7,36 98.3,48.8 92.3,35.7 				"/>
				<polygon class="st0" points="75.5,34.9 68.6,47.5 63.1,34.1 				"/>
				<polygon class="st0" points="46.7,32.7 39.4,45 34.4,31.4 				"/>
			</g>
			<g>
				<polygon class="st0" points="175.5,32.4 170.9,46 163.1,33.8 				"/>
				<polygon class="st0" points="147.7,35 142.3,48.3 135.3,35.6 				"/>
				<polygon class="st0" points="118.7,36 112.6,49 106.3,36 				"/>
				<polygon class="st0" points="90,35.6 83.4,48.3 77.6,35.1 				"/>
				<polygon class="st0" points="61.3,34 54.1,46.4 48.9,32.9 				"/>
				<g>
					<defs>
						<polygon id="SVGID_1_" points="133.2,35.7 127.5,48.8 120.8,36 						"/>
					</defs>
					<use xlink:href="#SVGID_1_"  style="overflow:visible;fill:#333333;"/>
					<clipPath id="SVGID_2_">
						<use xlink:href="#SVGID_1_"  style="overflow:visible;"/>
					</clipPath>
				</g>
				<g>
					<defs>
						<polygon id="SVGID_3_" points="90,35.6 83.4,48.3 77.6,35.1 						"/>
					</defs>
					<use xlink:href="#SVGID_3_"  style="display:none;overflow:visible;fill:#333333;"/>
					<clipPath id="SVGID_4_">
						<use xlink:href="#SVGID_3_"  style="display:none;overflow:visible;"/>
					</clipPath>
				</g>
			</g>
		</g>
		<polygon class="st0" points="133.2,35.7 127.5,48.8 120.8,36 		"/>
	</g>
</g>
</svg>
