<svg width="8" height="7" viewBox="0 0 8 7" fill="none" xmlns="http://www.w3.org/2000/svg">
<path d="M2.13324 6.42179C3.37651 6.42179 4.16601 5.79094 4.16601 4.78746C4.16601 4.01272 3.70854 3.56633 2.59071 3.33021L2.01149 3.20847C1.32161 3.0609 1.04492 2.80265 1.04492 2.41528C1.04492 1.9283 1.50607 1.62579 2.12955 1.62579C2.6608 1.62579 3.06662 1.83607 3.24739 2.32674C3.33224 2.51858 3.45399 2.61081 3.65321 2.61081C3.86718 2.61081 4.01844 2.47062 4.01844 2.25665C4.01844 2.17917 4.00737 2.11646 3.98893 2.06481C3.78233 1.35278 3.05924 0.921143 2.14062 0.921143C1.00802 0.921143 0.207458 1.54831 0.207458 2.45955C0.207458 3.22692 0.690748 3.72127 1.75325 3.94632L2.33615 4.06806C3.04817 4.22301 3.32855 4.48126 3.32855 4.89445C3.32855 5.37036 2.84526 5.71715 2.17013 5.71715C1.55403 5.71715 1.07074 5.48473 0.904724 4.98668C0.823561 4.78746 0.701816 4.70261 0.513665 4.70261C0.288622 4.70261 0.141052 4.85756 0.141052 5.09736C0.141052 5.1859 0.159498 5.27444 0.185323 5.35561C0.39192 5.9754 1.10025 6.42179 2.13324 6.42179Z" fill="white"/>
<path d="M6.01438 6.42179C7.05105 6.42179 7.67084 5.80938 7.67084 4.75426V1.37861C7.67084 1.11298 7.51221 0.950656 7.25765 0.950656C6.9994 0.950656 6.84445 1.11298 6.84445 1.37861V4.75057C6.84445 5.35561 6.54931 5.68395 6.007 5.68395C5.60487 5.68395 5.3208 5.45521 5.20643 5.04202C5.14003 4.79853 5.01459 4.69154 4.80431 4.69154C4.56819 4.69154 4.41694 4.84649 4.41694 5.09736C4.41694 5.24493 4.44645 5.35192 4.49441 5.48473C4.71207 6.06394 5.2876 6.42179 6.01438 6.42179Z" fill="white"/>
</svg>
