<svg width="339" height="161" viewBox="0 0 339 161" fill="none" xmlns="http://www.w3.org/2000/svg">
<path fill-rule="evenodd" clip-rule="evenodd" d="M339 24C339 15.5992 339 11.3988 337.365 8.19014C335.927 5.36771 333.632 3.073 330.81 1.6349C327.601 0 323.401 0 315 0H24C15.5992 0 11.3988 0 8.19014 1.6349C5.36771 3.073 3.073 5.36771 1.6349 8.19014C-7.15256e-07 11.3988 -7.15256e-07 15.5992 -7.15256e-07 24V137C-7.15256e-07 145.401 -7.15256e-07 149.601 1.6349 152.81C3.073 155.632 5.36771 157.927 8.19014 159.365C11.3988 161 15.5992 161 24 161H315C323.401 161 327.601 161 330.81 159.365C333.632 157.927 335.927 155.632 337.365 152.81C339 149.601 339 145.401 339 137V24Z" fill="#E5E5EA"/>
</svg>
