<svg width="240" height="58" viewBox="0 0 240 58" fill="none" xmlns="http://www.w3.org/2000/svg">
<path fill-rule="evenodd" clip-rule="evenodd" d="M240 24C240 15.5992 240 11.3988 238.365 8.19014C236.927 5.36771 234.632 3.073 231.81 1.6349C228.601 0 224.401 0 216 0H24C15.5992 0 11.3988 0 8.19013 1.6349C5.3677 3.073 3.07299 5.36771 1.63489 8.19014C-1.35899e-05 11.3988 -1.35899e-05 15.5992 -1.35899e-05 24V34C-1.35899e-05 42.4008 -1.35899e-05 46.6012 1.63489 49.8099C3.07299 52.6323 5.3677 54.927 8.19013 56.3651C11.3988 58 15.5992 58 24 58H227C234.18 58 240 52.1797 240 45V45V24Z" fill="#007AFF"/>
</svg>
