<svg width="234" height="58" viewBox="0 0 234 58" fill="none" xmlns="http://www.w3.org/2000/svg">
<path fill-rule="evenodd" clip-rule="evenodd" d="M234 24C234 15.5992 234 11.3988 232.365 8.19014C230.927 5.36771 228.632 3.073 225.81 1.6349C222.601 0 218.401 0 210 0H24C15.5992 0 11.3988 0 8.19014 1.6349C5.36771 3.073 3.073 5.36771 1.6349 8.19014C0 11.3988 0 15.5992 0 24V34C0 42.4008 0 46.6012 1.6349 49.8099C3.073 52.6323 5.36771 54.927 8.19014 56.3651C11.3988 58 15.5992 58 24 58H221C228.18 58 234 52.1797 234 45V45V24Z" fill="#007AFF"/>
</svg>
