<svg width="24" height="18" viewBox="0 0 24 18" fill="none" xmlns="http://www.w3.org/2000/svg">
<path fill-rule="evenodd" clip-rule="evenodd" d="M4.2128 4.7781C4.19788 4.79175 4.1686 4.82005 4.1363 4.85187C4.11289 4.87494 4.09418 4.89358 4.05545 4.93231L1.91229 7.07547C1.85617 7.13424 1.81718 7.17372 1.72661 7.26429C1.67607 7.31483 1.63897 7.35365 1.55913 7.43848C1.41068 7.58214 1.25414 7.75365 1.10745 7.9347C0.969137 8.08102 0.858626 8.25144 0.781444 8.43762C0.622542 8.92173 0.622542 9.39228 0.764088 9.8293L0.783047 9.88023C0.860853 10.0645 0.970706 10.2334 1.10743 10.3791C1.25424 10.5588 1.41077 10.7304 1.57629 10.8931C1.63897 10.9604 1.67607 10.9992 1.72661 11.0497L1.91229 11.2354L3.86626 13.1925C3.95764 13.2839 4.00251 13.3283 4.05449 13.3779C4.10989 13.4363 4.16807 13.4942 4.22648 13.5492C4.23693 13.5585 6.72731 16.0473 6.72731 16.0473C6.80423 16.1242 6.86627 16.1846 7.00583 16.3194C7.02065 16.3339 7.04313 16.3567 7.05004 16.364C7.08597 16.4018 7.1068 16.4236 7.12069 16.4375C7.41112 16.7283 7.745 16.9727 8.11028 17.1619C8.48455 17.3482 8.87399 17.4763 9.27571 17.547C9.6552 17.6091 10.0311 17.6423 10.4079 17.6477C10.4728 17.6491 10.5266 17.6497 10.6467 17.6509C10.7627 17.6521 10.8137 17.6527 10.8765 17.654L18.2973 17.6541C18.3738 17.6527 18.4255 17.6521 18.5427 17.6509C18.6639 17.6497 18.7184 17.6491 18.788 17.6477C19.1663 17.641 19.5449 17.6067 19.9195 17.545C20.3301 17.4756 20.7251 17.3452 21.0938 17.1578C21.4653 16.9691 21.8044 16.7224 22.0983 16.4269C22.3906 16.1334 22.6361 15.7961 22.8256 15.4272C23.0127 15.0528 23.1412 14.6596 23.2103 14.254C23.2732 13.875 23.3065 13.4945 23.3105 13.1132C23.3139 13.0348 23.3153 12.9598 23.3175 12.7938C23.3185 12.7149 23.319 12.6802 23.3199 12.6374L23.32 5.64802C23.319 5.59356 23.3185 5.55898 23.3175 5.48153L23.3164 5.40107C23.3149 5.29961 23.3131 5.22348 23.3101 5.14766C23.3059 4.78875 23.2739 4.41318 23.2146 4.04144C23.1423 3.6298 23.0141 3.24035 22.8324 2.87517C22.6414 2.50222 22.3976 2.16745 22.1065 1.87642C21.8163 1.58402 21.4793 1.33825 21.11 1.15016C20.743 0.966341 20.3554 0.837958 19.9554 0.767116C19.5718 0.70602 19.1952 0.673975 18.8179 0.6694C18.6931 0.664164 18.5826 0.663059 18.3382 0.663059C18.2581 0.661637 18.1645 0.660753 18.0592 0.660311C17.9799 0.659978 17.917 0.659912 17.7749 0.659912H11.4524C11.1688 0.659912 11.0404 0.660449 10.8786 0.663147C10.6447 0.663059 10.5342 0.664164 10.3918 0.669856C10.0331 0.673685 9.65718 0.705775 9.28515 0.765404C8.87399 0.837667 8.48455 0.965823 8.11936 1.14751C7.745 1.3413 7.41112 1.58572 7.12042 1.87677C7.1068 1.89039 7.08597 1.91224 7.05146 1.94857C7.04313 1.95728 7.00583 1.99465 7.00583 1.99465C6.86627 2.1294 6.80423 2.18983 6.72731 2.26674L6.40631 2.58774L4.27136 4.72579C4.25265 4.74072 4.23263 4.75827 4.2128 4.7781ZM17.7749 1.91874C17.9152 1.91874 17.977 1.91881 18.0539 1.91913C18.1543 1.91955 18.2428 1.92039 18.3277 1.9218C18.5658 1.92189 18.6651 1.92288 18.7851 1.92768C19.1189 1.93197 19.4344 1.95883 19.7468 2.00849C20.0162 2.05631 20.2879 2.14629 20.5425 2.2738C20.7888 2.39927 21.017 2.5657 21.2147 2.76492C21.4148 2.96493 21.5809 3.19294 21.7087 3.44248C21.8332 3.69289 21.9234 3.96695 21.9731 4.24963C22.0211 4.55092 22.0479 4.86535 22.0518 5.18047C22.0548 5.26126 22.0563 5.32794 22.0577 5.41976L22.0588 5.49817C22.0598 5.57846 22.0604 5.61495 22.0613 5.66061L22.0612 12.6251C22.0604 12.6592 22.0598 12.6957 22.0588 12.7774C22.0568 12.9324 22.0554 13.0001 22.0522 13.0819C22.0484 13.4167 22.0207 13.7328 21.9689 14.0454C21.9211 14.3261 21.8312 14.601 21.7026 14.8584C21.5757 15.1053 21.4071 15.337 21.2061 15.5388C21.0062 15.7398 20.7759 15.9073 20.5236 16.0355C20.2682 16.1653 19.9947 16.2556 19.7123 16.3034C19.4008 16.3546 19.083 16.3834 18.7645 16.3891C18.6991 16.3904 18.6474 16.391 18.5302 16.3922C18.409 16.3934 18.3545 16.394 18.2849 16.3954L10.8891 16.3953C10.8333 16.394 10.7794 16.3934 10.6593 16.3922C10.5434 16.391 10.4924 16.3904 10.4296 16.3891C10.1112 16.3845 9.79706 16.3567 9.48626 16.306C9.21114 16.2575 8.93708 16.1673 8.6801 16.0395C8.43895 15.9145 8.21023 15.747 8.01109 15.5477L7.96194 15.4962C7.91309 15.445 7.89195 15.4232 7.86764 15.4016C7.74224 15.2805 7.68516 15.2249 7.61744 15.1571L5.12181 12.6615C5.09902 12.6408 5.08523 12.6282 5.07571 12.6198C5.03061 12.5764 4.99372 12.5392 4.95885 12.5021C4.88679 12.4323 4.84732 12.3933 4.75675 12.3028L2.80277 10.3456L2.61674 10.1596C2.57811 10.121 2.54703 10.0885 2.47581 10.0128C2.3208 9.85978 2.19075 9.71662 2.06909 9.56646L2.03102 9.52361C1.9993 9.49102 1.97296 9.45365 1.95294 9.41292C1.90451 9.24511 1.9047 9.06695 1.95349 8.89921C1.97236 8.86012 1.99756 8.82435 2.02812 8.79337L2.07102 8.74517C2.19068 8.59599 2.3194 8.4543 2.45645 8.32092C2.54703 8.22556 2.57811 8.19305 2.61674 8.15442C2.71499 8.05617 2.75888 8.01172 2.81368 7.95404L4.75675 6.01126L4.94557 5.82244C4.98316 5.78485 4.99928 5.76879 5.01971 5.74867L5.06129 5.71129L5.0613 5.71129L5.06134 5.71125C5.09156 5.68416 5.10832 5.66913 5.12496 5.6525L7.29676 3.47755L7.61744 3.15687C7.68516 3.08914 7.74224 3.03349 7.86764 2.91239C7.89195 2.89079 7.91309 2.869 7.96031 2.81957L8.01082 2.76663C8.21023 2.56698 8.43895 2.39953 8.68918 2.26994C8.93708 2.1467 9.21114 2.05651 9.49383 2.00678C9.79524 1.95854 10.1094 1.93173 10.4242 1.92814C10.5621 1.92288 10.6614 1.92189 10.8891 1.92189C11.0521 1.91926 11.1758 1.91874 11.4524 1.91874H17.7749ZM11.8129 12.4884C11.7619 12.5383 11.7011 12.5791 11.6326 12.6074C11.4206 12.6949 11.1768 12.646 11.0149 12.4835C10.7949 12.2624 10.7949 11.9051 11.0149 11.6841C11.047 11.6519 11.0823 11.6241 11.1199 11.601L13.5641 9.15429L11.0149 6.60788L11.0226 6.60017C10.9727 6.54923 10.9319 6.4884 10.9036 6.41987C10.8161 6.20789 10.865 5.96404 11.0275 5.80223C11.2486 5.58218 11.6059 5.58218 11.8269 5.80223C11.8591 5.83426 11.8868 5.86951 11.9099 5.90709L14.3621 8.3554L16.8374 5.87746C16.8558 5.85106 16.8766 5.82587 16.9 5.80223C17.0612 5.64032 17.3041 5.59158 17.5152 5.67877C17.7264 5.76596 17.8641 5.97188 17.8641 6.20033C17.8641 6.35262 17.8029 6.49489 17.6996 6.59865L17.7056 6.60473L15.1605 9.15254L17.6444 11.6325C17.6669 11.6489 17.6884 11.6671 17.7088 11.6873C17.8707 11.8484 17.9194 12.0913 17.8322 12.3025C17.745 12.5137 17.5391 12.6514 17.3107 12.6514C17.1584 12.6514 17.0161 12.5902 16.9123 12.4868L16.9063 12.4929L14.3623 9.95164L11.8206 12.4961L11.8129 12.4884Z" fill="black"/>
</svg>
