<svg width="26" height="26" viewBox="0 0 26 26" fill="none" xmlns="http://www.w3.org/2000/svg">
<path d="M17 13C17 15.2092 15.2091 17 13 17C10.7908 17 8.99998 15.2092 8.99998 13C8.99998 10.7909 10.7908 9.00004 13 9.00004C15.2091 9.00004 17 10.7909 17 13Z" stroke="#14142B" stroke-width="2"/>
<path d="M11.2844 2.86296C12.061 1.567 13.939 1.567 14.7155 2.86297L15.4213 4.04073C15.8742 4.79653 16.7684 5.1669 17.623 4.95272L18.9549 4.61896C20.4204 4.2517 21.7483 5.57962 21.3811 7.04513L21.0473 8.37699C20.8331 9.23166 21.2035 10.1258 21.9593 10.5787L23.1371 11.2845C24.433 12.0611 24.433 13.939 23.137 14.7156L21.9593 15.4214C21.2035 15.8743 20.8331 16.7684 21.0473 17.6231L21.3811 18.9549C21.7483 20.4205 20.4204 21.7484 18.9549 21.3811L17.623 21.0474C16.7684 20.8332 15.8742 21.2036 15.4213 21.9593L14.7155 23.1371C13.939 24.4331 12.061 24.4331 11.2844 23.1371L10.5787 21.9593C10.1258 21.2035 9.2316 20.8332 8.37693 21.0474L7.04507 21.3811C5.57955 21.7484 4.25164 20.4205 4.6189 18.9549L4.95266 17.6231C5.16684 16.7684 4.79647 15.8743 4.04067 15.4214L2.8629 14.7156C1.56694 13.939 1.56694 12.0611 2.86291 11.2845L4.04067 10.5787C4.79647 10.1258 5.16684 9.23166 4.95266 8.37699L4.6189 7.04513C4.25164 5.57962 5.57956 4.2517 7.04507 4.61896L8.37693 4.95272C9.2316 5.1669 10.1258 4.79653 10.5787 4.04073L11.2844 2.86296Z" stroke="#14142B" stroke-width="2"/>
</svg>
