<svg width="7" height="12" viewBox="0 0 7 12" fill="none" xmlns="http://www.w3.org/2000/svg">
<path d="M0 5.99666C0 5.72287 0.100286 5.49583 0.314231 5.28214L5.46227 0.253756C5.6361 0.0801335 5.84336 0 6.09074 0C6.59217 0 7 0.39399 7 0.894825C7 1.1419 6.89303 1.36895 6.71251 1.54925L2.13945 5.98998L6.71251 10.4441C6.89303 10.6244 7 10.8447 7 11.0985C7 11.5993 6.59217 12 6.09074 12C5.84336 12 5.6361 11.9132 5.46227 11.7396L0.314231 6.71118C0.0936006 6.4975 0 6.27045 0 5.99666Z" fill="#3C3C43" fill-opacity="0.3"/>
</svg>
