<svg width="20" height="17" viewBox="0 0 20 17" fill="none" xmlns="http://www.w3.org/2000/svg">
<path d="M18.8 10.6642H14.603V14.6333C14.603 14.7133 14.603 14.7866 14.603 14.8633C14.603 14.9299 14.603 14.9933 14.6003 15.0599C14.5984 15.2028 14.5861 15.3454 14.5633 15.4865C14.5385 15.6266 14.4936 15.7624 14.43 15.8897C14.3649 16.0169 14.2798 16.1328 14.1781 16.233C14.0758 16.3332 13.9591 16.4174 13.8318 16.4829C13.7029 16.5457 13.566 16.5905 13.4249 16.6162C13.2834 16.6384 13.1405 16.6507 12.9973 16.6529C12.9307 16.6529 12.866 16.6562 12.8007 16.6562H7.40159C7.33494 16.6562 7.27062 16.6529 7.20497 16.6529C7.06176 16.6507 6.91889 16.6384 6.7774 16.6162C6.63643 16.5905 6.49964 16.5457 6.37082 16.4829C6.24353 16.4174 6.12681 16.3332 6.02457 16.233C5.92274 16.1328 5.83767 16.0169 5.77262 15.8897C5.70902 15.7624 5.66412 15.6266 5.63932 15.4865C5.6164 15.3454 5.60392 15.2028 5.602 15.0599C5.602 14.9933 5.59933 14.9299 5.59933 14.8633C5.59933 14.7866 5.59933 14.7133 5.59933 14.6333V10.6642H1.33596C0.904727 10.6642 0.351519 9.73446 0.869402 9.21791C1.30964 8.78134 8.22873 1.8829 9.67674 0.446562C9.78314 0.3158 9.93344 0.228157 10.0996 0.199951H10.111C10.2548 0.207749 10.3883 0.276932 10.4776 0.389908C11.9256 1.82625 18.8683 8.78134 19.3089 9.21791C19.8271 9.73446 19.3932 10.6642 18.8 10.6642Z" fill="black"/>
</svg>
