<?xml version="1.0" encoding="utf-8"?>
<!-- Generator: Adobe Illustrator 25.2.1, SVG Export Plug-In . SVG Version: 6.00 Build 0)  -->
<svg version="1.1" id="Слой_1" xmlns="http://www.w3.org/2000/svg" xmlns:xlink="http://www.w3.org/1999/xlink" x="0px" y="0px"
	 viewBox="0 0 48 48" style="enable-background:new 0 0 48 48;" xml:space="preserve">
<style type="text/css">
	.st0{fill-rule:evenodd;clip-rule:evenodd;fill:#FFFFFF;}
</style>
<path class="st0" d="M3.4,3.4C0,6.7,0,12.2,0,23V25c0,10.9,0,16.3,3.4,19.7C6.7,48,12.2,48,23,48H25c10.9,0,16.3,0,19.7-3.4
	C48,41.3,48,35.8,48,25V23c0-10.9,0-16.3-3.4-19.7C41.3,0,35.8,0,25,0H23C12.2,0,6.7,0,3.4,3.4z M8.1,14.6c0.3,12.5,6.5,20,17.4,20
	h0.6v-7.1c4,0.4,7.1,3.3,8.3,7.1h5.7c-1.6-5.7-5.7-8.8-8.2-10c2.6-1.5,6.2-5.1,7-10h-5.2c-1.1,4-4.4,7.6-7.6,7.9v-7.9H21v13.8
	c-3.2-0.8-7.2-4.7-7.4-13.8H8.1z"/>
</svg>
