<svg width="315" height="272" viewBox="0 0 315 272" fill="none" xmlns="http://www.w3.org/2000/svg">
<g clip-path="url(#clip0_1_2027)">
<path d="M150.547 117.62V23.6314L225.586 117.62H150.547Z" fill="#25F4EE"/>
<path d="M239.186 87.1615H75.8136C33.9429 87.1615 0 121.144 0 163.064V195.598C0 237.517 33.9429 271.5 75.8136 271.5H239.186C281.057 271.5 315 237.517 315 195.598V163.064C315 121.144 281.057 87.1615 239.186 87.1615Z" fill="#25F4EE"/>
<path d="M208.649 187.246H199.17L206.256 179.212C208.414 176.769 209.494 174.185 209.494 171.413C209.494 168.688 208.508 166.433 206.537 164.694C204.613 162.956 202.22 162.063 199.451 162.063C193.679 162.063 189.644 165.728 188.705 171.601L194.712 172.634C195.087 170.144 196.777 168.359 199.076 168.359C201.469 168.359 202.924 169.721 202.924 171.413C202.924 172.493 202.361 173.621 201.282 174.889L188.658 189.877V193.447H208.649V187.246Z" fill="#FE2C55"/>
<path d="M214.696 178.037C214.696 188.608 218.544 193.917 226.193 193.917C230.51 193.917 233.607 192.226 235.25 189.219C236.939 186.212 237.596 182.735 237.596 178.037C237.596 173.339 236.939 169.768 235.25 166.762C233.607 163.755 230.51 162.063 226.193 162.063C218.544 162.063 214.696 167.372 214.696 178.037ZM221.265 178.037C221.265 171.648 222.908 168.453 226.193 168.453C229.431 168.453 231.026 171.648 231.026 178.037C231.026 184.38 229.431 187.527 226.193 187.527C222.908 187.527 221.265 184.38 221.265 178.037Z" fill="#FE2C55"/>
<path d="M262.679 187.246H253.2L260.286 179.212C262.444 176.769 263.524 174.185 263.524 171.413C263.524 168.688 262.538 166.433 260.567 164.694C258.643 162.956 256.25 162.063 253.481 162.063C247.709 162.063 243.674 165.728 242.735 171.601L248.742 172.634C249.117 170.144 250.807 168.359 253.106 168.359C255.499 168.359 256.954 169.721 256.954 171.413C256.954 172.493 256.391 173.621 255.312 174.889L242.688 189.877V193.447H262.679V187.246Z" fill="#FE2C55"/>
<path d="M287.868 187.246H278.388L285.474 179.212C287.633 176.769 288.712 174.185 288.712 171.413C288.712 168.688 287.727 166.433 285.756 164.694C283.832 162.956 281.439 162.063 278.67 162.063C272.898 162.063 268.862 165.728 267.924 171.601L273.93 172.634C274.306 170.144 275.995 168.359 278.294 168.359C280.688 168.359 282.142 169.721 282.142 171.413C282.142 172.493 281.579 173.621 280.5 174.889L267.877 189.877V193.447H287.868V187.246Z" fill="#FE2C55"/>
<path d="M166.439 9.7088C167.711 16.6015 170.385 23.1584 174.297 28.9717C178.208 34.7849 183.273 39.73 189.175 43.4994C193.802 46.4315 196.712 48.6821 202.082 50.1075V87.7304C189.061 85.4229 176.727 80.2022 166.002 72.4574L164.703 178.324C164.703 178.624 164.703 178.949 164.703 179.231C164.705 182.662 164.453 186.089 163.948 189.484C159.071 222.455 130.665 247.843 96.5078 247.843H96.2081C85.8349 247.846 75.5966 245.49 66.265 240.954C56.9333 236.419 48.7518 229.822 42.3371 221.66C35.9224 213.499 31.4419 203.986 29.2334 193.839C27.0249 183.692 27.1459 173.175 29.5875 163.081C32.029 152.988 36.7273 143.581 43.3282 135.57C49.9291 127.558 58.2603 121.152 67.694 116.833C77.1276 112.514 87.4174 110.395 97.7877 110.637C108.158 110.878 118.338 113.473 127.561 118.226L128.398 0.5H165.59C165.656 3.58579 165.94 6.66305 166.439 9.7088Z" fill="black"/>
<path d="M76.2861 160.604H86.6941L85.7389 163.582L83.0386 163.581V174.59H79.674V163.581L76.2884 163.588L76.2861 160.604Z" fill="white"/>
<path d="M103.745 160.604H114.394L113.438 163.582L110.503 163.581V174.59H107.133V163.581L103.747 163.588L103.745 160.604Z" fill="white"/>
<path d="M87.3296 165.053H90.6664L90.663 174.59H87.3496L87.3296 165.053Z" fill="white"/>
<path d="M91.9904 160.564H95.3238V167.078L98.6273 163.837H102.606L98.4273 167.892L103.107 174.59H99.4348L96.3113 169.945L95.3227 170.906V174.59H91.9893V160.564H91.9904Z" fill="white"/>
<path d="M125.884 160.564H129.217V167.078L132.521 163.837H136.5L132.321 167.892L137.001 174.59H133.328L130.205 169.945L129.216 170.906V174.59H125.883V160.564H125.884Z" fill="white"/>
<path d="M88.9969 163.962C89.9244 163.962 90.6764 163.21 90.6764 162.283C90.6764 161.355 89.9244 160.603 88.9969 160.603C88.0693 160.603 87.3174 161.355 87.3174 162.283C87.3174 163.21 88.0693 163.962 88.9969 163.962Z" fill="white"/>
<path d="M118.82 163.171C115.667 163.171 113.111 165.727 113.111 168.881C113.111 172.034 115.667 174.59 118.82 174.59C121.974 174.59 124.53 172.034 124.53 168.881C124.529 165.727 121.973 163.171 118.82 163.171ZM118.82 171.656C117.287 171.656 116.044 170.414 116.044 168.881C116.044 167.348 117.287 166.105 118.82 166.105C120.353 166.105 121.596 167.348 121.596 168.881C121.595 170.414 120.353 171.656 118.82 171.656Z" fill="white"/>
<path d="M70.4057 159.893C69.3593 159.211 68.6051 158.12 68.3696 156.848C68.3185 156.573 68.2908 156.29 68.2908 156H64.9518L64.9462 169.379C64.8896 170.878 63.6566 172.08 62.1448 172.08C61.675 172.08 61.2329 171.962 60.843 171.757C59.9499 171.288 59.3379 170.351 59.3379 169.274C59.3379 167.726 60.5964 166.467 62.1448 166.467C62.4336 166.467 62.7113 166.515 62.9724 166.597V163.98V163.189C62.7013 163.152 62.4259 163.129 62.1448 163.129C58.757 163.129 56 165.886 56 169.274C56 171.353 57.0386 173.193 58.6237 174.305C59.6223 175.005 60.8363 175.419 62.1448 175.419C65.5327 175.419 68.2897 172.662 68.2897 169.274V162.489C69.5993 163.429 71.2032 163.983 72.9349 163.983V161.388V160.644C72.003 160.645 71.1344 160.369 70.4057 159.893Z" fill="white"/>
<path d="M61.2643 186.708L63.0815 191.34H59.4347L61.2643 186.708ZM64.655 195.26H66.2161L62.0636 184.826H60.4713L56.3125 195.26H57.8861L58.9539 192.609H63.606L64.655 195.26Z" fill="white"/>
<path d="M76.3258 192.716C75.9478 193.148 75.4793 193.491 74.9537 193.721C74.4281 193.951 73.8582 194.063 73.2847 194.047C72.7491 194.063 72.2159 193.968 71.7178 193.771C71.2197 193.573 70.767 193.276 70.3873 192.897C70.0131 192.527 69.716 192.086 69.5133 191.599C69.3105 191.113 69.2061 190.592 69.2061 190.065C69.2061 189.538 69.3105 189.017 69.5133 188.53C69.716 188.044 70.0131 187.603 70.3873 187.233C70.7834 186.853 71.2503 186.554 71.7616 186.355C72.2728 186.155 72.8183 186.059 73.3668 186.07C73.9154 186.082 74.4563 186.202 74.9586 186.423C75.4609 186.643 75.9149 186.961 76.2946 187.358L77.4061 186.476C76.3609 185.381 74.9246 184.746 73.4122 184.71C71.8998 184.673 70.4347 185.239 69.3383 186.283C68.8292 186.773 68.4243 187.36 68.1477 188.011C67.8711 188.661 67.7285 189.361 67.7285 190.068C67.7285 190.775 67.8711 191.475 68.1477 192.125C68.4243 192.776 68.8292 193.363 69.3383 193.853C69.887 194.372 70.5324 194.776 71.2375 195.045C71.9427 195.313 72.6937 195.439 73.4476 195.416C74.2016 195.394 74.9437 195.223 75.6315 194.913C76.3193 194.603 76.9393 194.16 77.456 193.61L76.3258 192.716Z" fill="white"/>
<path d="M83.788 186.708L85.5989 191.34H81.9147L83.788 186.708ZM87.1787 195.26H88.7336L84.5811 184.826H82.9887L78.7925 195.26H80.3723L81.4339 192.609H86.086L87.1787 195.26Z" fill="white"/>
<path d="M95.415 195.26C96.0872 195.295 96.7588 195.183 97.3832 194.931C98.0076 194.679 98.5698 194.295 99.0306 193.804C99.9313 192.767 100.405 191.426 100.354 190.053C100.406 188.676 99.9255 187.332 99.0118 186.301C98.5581 185.804 98.0006 185.414 97.379 185.156C96.7574 184.899 96.0869 184.782 95.415 184.814H91.1626V195.248L95.415 195.26ZM92.6488 186.145H95.415C95.8967 186.116 96.3785 186.201 96.8212 186.393C97.2639 186.585 97.6551 186.88 97.9628 187.252C98.554 188.07 98.8723 189.055 98.8723 190.065C98.8723 191.075 98.554 192.06 97.9628 192.878C97.6491 193.241 97.2561 193.527 96.8143 193.714C96.3725 193.9 95.8937 193.982 95.415 193.954H92.6488V186.145Z" fill="white"/>
<path d="M103.483 195.26H110.14V193.941H104.963V190.815H109.334V189.502H104.963V186.17H109.959V184.851H103.464L103.483 195.26Z" fill="white"/>
<path d="M115.347 184.826H113.998L112.662 195.26H114.123L115.129 187.414L118.582 194.091H119.887L123.309 187.395L124.314 195.241H125.775L124.439 184.807H123.084L119.219 192.472L115.347 184.826Z" fill="white"/>
<path d="M132.85 190.459L137.053 184.832H135.267L132.082 189.058L128.96 184.832H127.193L131.352 190.459V195.26H132.882L132.85 190.459Z" fill="white"/>
</g>
<defs>
<clipPath id="clip0_1_2027">
<rect width="315" height="271" fill="white" transform="translate(0 0.5)"/>
</clipPath>
</defs>
</svg>
